<?xml version="1.0" encoding="utf-8"?>
<!-- Generator: Adobe Illustrator 15.0.0, SVG Export Plug-In . SVG Version: 6.00 Build 0)  -->
<!DOCTYPE svg PUBLIC "-//W3C//DTD SVG 1.1//EN" "http://www.w3.org/Graphics/SVG/1.1/DTD/svg11.dtd">
<svg version="1.1" id="Camada_1" xmlns="http://www.w3.org/2000/svg" xmlns:xlink="http://www.w3.org/1999/xlink" x="0px" y="0px"
	 width="128px" height="128px" viewBox="0 0 128 128" enable-background="new 0 0 128 128" xml:space="preserve">
<path fill="#E6A19B" d="M-21.881-33.881c0,6.627-5.373,12-12,12h-100.237c-6.627,0-12-5.373-12-12v-100.237c0-6.627,5.373-12,12-12
	h100.237c6.627,0,12,5.373,12,12V-33.881z"/>
<g>
	<circle fill="#BF7E87" stroke="#FFFFFF" stroke-miterlimit="10" cx="-84" cy="-84" r="46.671"/>
	<circle fill="#F2E5BD" stroke="#FFFFFF" stroke-miterlimit="10" cx="-84" cy="-84" r="28.215"/>
	<circle fill="#6E4773" stroke="#FFFFFF" stroke-miterlimit="10" cx="-76.886" cy="-92.627" r="17.091"/>
</g>
<path fill="#A0D3C5" d="M-22.5,113.5c0,6.627-5.373,12-12,12h-99c-6.627,0-12-5.373-12-12v-99c0-6.627,5.373-12,12-12h99
	c6.627,0,12,5.373,12,12V113.5z"/>
<g>
	<circle fill="#EE913E" cx="-84" cy="63.999" r="43.497"/>
	<circle fill="#F2E5BD" cx="-84" cy="63.999" r="26.296"/>
	<circle fill="#A0D3C5" cx="-77.37" cy="55.96" r="15.929"/>
</g>
<circle fill="#79A68C" stroke="#4B7B80" stroke-miterlimit="10" cx="64" cy="-84" r="60.125"/>
<path fill="#4B7B80" d="M126.238,114.119c0,6.627-5.373,12-12,12H14c-6.627,0-12-5.373-12-12V13.881c0-6.627,5.373-12,12-12h100.238
	c6.627,0,12,5.373,12,12V114.119z"/>
<g>
	<circle fill="#BF7E87" stroke="#FFFFFF" stroke-miterlimit="10" cx="65.994" cy="64" r="46.672"/>
	<circle fill="#F2E5BD" stroke="#FFFFFF" stroke-miterlimit="10" cx="65.994" cy="64" r="28.215"/>
	<circle fill="#6E4773" stroke="#FFFFFF" stroke-miterlimit="10" cx="73.108" cy="55.373" r="17.091"/>
</g>
<polygon fill="#4B7B80" stroke="#F0CA99" stroke-miterlimit="10" points="36.454,-36.29 8.908,-84 36.454,-131.711 91.546,-131.711 
	119.092,-84 91.546,-36.29 "/>
<text transform="matrix(1 0 0 1 28.4824 -70.5405)" fill="#F0CA99" font-family="'Quadranta'" font-size="43">LYFI</text>
</svg>
